<svg width="49" height="49" viewBox="0 0 49 49" fill="none" xmlns="http://www.w3.org/2000/svg">
<rect width="49" height="49" rx="4" fill="#333333"/>
<g clip-path="url(#clip0_1_34833)">
<path d="M35.9578 20.0801L28.2413 27.7966C27.3809 28.6548 26.2153 29.1368 25 29.1368C23.7847 29.1368 22.6191 28.6548 21.7587 27.7966L14.0422 20.0801C14.0293 20.2249 14 20.356 14 20.4999V29.4999C14.0015 30.715 14.4848 31.88 15.344 32.7392C16.2033 33.5984 17.3682 34.0818 18.5833 34.0832H31.4167C32.6318 34.0818 33.7967 33.5984 34.656 32.7392C35.5152 31.88 35.9985 30.715 36 29.4999V20.4999C36 20.356 35.9707 20.2249 35.9578 20.0801Z" fill="white"/>
<path d="M26.9448 26.5003L35.3176 18.1266C34.912 17.454 34.34 16.8974 33.6566 16.5103C32.9733 16.1231 32.2017 15.9186 31.4163 15.9165H18.583C17.7976 15.9186 17.026 16.1231 16.3427 16.5103C15.6593 16.8974 15.0872 17.454 14.6816 18.1266L23.0545 26.5003C23.5711 27.0149 24.2705 27.3038 24.9996 27.3038C25.7288 27.3038 26.4282 27.0149 26.9448 26.5003Z" fill="white"/>
</g>
<defs>
<clipPath id="clip0_1_34833">
<rect width="22" height="20" fill="white" transform="translate(14 15)"/>
</clipPath>
</defs>
</svg>
