<svg width="197" height="56" viewBox="0 0 197 56" fill="none" xmlns="http://www.w3.org/2000/svg">
<path fill-rule="evenodd" clip-rule="evenodd" d="M19 56H16.9131C14.6348 56 12.6436 54.4593 12.0732 52.2533L6.19043 29.5365C8.4043 28.6672 11.7041 27.5 13.043 27.5C10.8311 25.8408 7.53516 25.0419 4.94043 24.7068L0.162114 6.2533C-0.657222 3.08752 1.73243 0 5.00293 0H19H20.043H176.043H177H191.083C194.354 0 196.743 3.08752 195.924 6.2533L191.146 24.7068C188.551 25.0419 185.255 25.8408 183.043 27.5C184.382 27.5 187.682 28.6672 189.896 29.5365L184.013 52.2533C183.442 54.4593 181.451 56 179.173 56H177H176.043H20.043H19Z" fill="#333333"/>
<path d="M62.7598 32.808C62.7918 32.728 62.8078 32.584 62.8398 32.552H63.0638V35.464H62.7918C62.7918 35.304 62.8078 35.208 62.5838 35.064C62.4558 35 62.2478 35.016 62.1198 35.016L51.2718 35L51.2878 34.776C51.4638 34.776 51.6238 34.76 51.7038 34.536C51.7358 34.488 51.7198 34.152 51.7198 34.072V23.224C51.7198 23.192 51.7518 22.792 51.7198 22.744C51.6558 22.568 51.4798 22.52 51.3038 22.52V22.28H54.7278V22.536C54.6318 22.536 54.3918 22.568 54.2958 22.776C54.2318 22.904 54.2478 23.16 54.2478 23.304V32.968H62.1198C62.1198 32.968 62.6318 33 62.7598 32.808ZM75.1918 24.344L75.2558 24.232H75.4318V26.392H75.2398L75.1918 26.248C75.0638 26.152 74.7918 26.136 74.6318 26.136H67.7198V28.776H72.2958C72.3758 28.776 72.5838 28.808 72.7118 28.68L72.7598 28.552H72.9518V30.696L72.7118 30.568C72.5838 30.456 72.3438 30.44 72.1998 30.44H67.7518V33.256H74.7758C74.9038 33.256 75.1758 33.288 75.3358 33.176L75.3998 33.032L75.5918 33.064V35.224H75.3998L75.3358 35.08C75.2398 35.048 75.0318 35 74.9038 35H65.3038V34.776C65.4478 34.776 65.6078 34.712 65.6078 34.504C65.6398 34.424 65.6238 34.184 65.6238 34.104V25.432C65.6238 25.32 65.5918 25.112 65.5918 24.968C65.5758 24.936 65.5598 24.76 65.5278 24.712C65.3838 24.632 65.4318 24.648 65.2718 24.584L65.2878 24.392H74.8238C75.0478 24.392 75.0478 24.408 75.1918 24.344ZM77.8503 26.232V24.152H78.0743L78.2023 24.344H87.9463L88.1223 24.168L88.2983 24.184V26.296H88.0743C88.0263 26.12 87.9463 26.088 87.7543 26.088C87.6423 26.088 87.5143 26.104 87.3863 26.072H84.1703V33.976C84.1703 34.104 84.1863 34.296 84.1863 34.456C84.1863 34.68 84.2983 34.776 84.5383 34.776V35H81.6583V34.776C81.7543 34.776 81.9143 34.712 82.0103 34.52C82.0423 34.456 82.0263 34.136 82.0263 34.072V26.072H78.1863L78.0743 26.232H77.8503ZM91.8341 26.488C91.5301 26.68 91.1941 26.84 90.5061 27.112V26.568C91.4821 26.136 92.2181 25.704 92.2821 24.552C91.8181 24.616 91.3381 24.632 90.9861 24.2C90.7461 23.944 90.6661 23.544 90.7781 23.128C90.8581 22.76 91.1301 22.424 91.5141 22.28C91.7701 22.2 92.2661 22.2 92.6661 22.504C93.2421 22.904 93.3541 23.544 93.3381 24.04C93.3221 24.92 92.9861 25.752 91.8341 26.488ZM99.9846 24.312C101.921 24.088 103.665 24.36 105.841 25.368L105.969 25.224L106.193 25.352L105.089 27.496L104.849 27.4C104.785 27.016 104.945 27.08 104.529 26.776C104.401 26.664 104.193 26.536 103.857 26.408C103.457 26.248 103.009 26.12 102.465 26.008C101.889 25.912 98.8486 25.72 98.0006 26.808C97.8086 27.064 97.6806 27.4 97.8566 27.752C98.2566 28.536 99.6486 28.488 100.129 28.536L102.177 28.616C103.073 28.648 105.105 28.68 106.017 30.152C106.481 30.888 106.529 32.12 106.193 32.92C105.617 34.312 104.273 34.776 103.105 35.016C102.113 35.24 100.689 35.32 99.4406 35.176C98.8326 35.112 98.5126 35.048 97.6166 34.76C97.1206 34.584 96.9126 34.472 96.7206 34.392L96.2566 34.152C96.1126 34.104 95.9846 34.008 95.8086 34.184L95.5686 34.072L96.8326 31.752L97.0566 31.864C96.9606 32.088 97.0086 32.136 97.1846 32.44C97.3286 32.584 97.6326 32.728 97.7766 32.808C98.1446 33 98.5286 33.144 98.9446 33.24C99.5686 33.4 103.041 33.88 104.065 32.648C104.321 32.344 104.449 31.768 104.273 31.368C103.937 30.6 102.657 30.664 102.177 30.632L100.017 30.552C99.1046 30.504 96.9606 30.408 96.0966 28.936C95.6966 28.216 95.7286 27.224 96.1286 26.424C96.8806 24.936 98.7686 24.456 99.9846 24.312ZM127.956 23.56C128.132 23.56 128.212 23.496 128.356 23.336L128.58 23.448L126.9 26.296L126.676 26.232C126.676 25.928 126.804 25.896 126.516 25.576C126.436 25.448 126.244 25.288 125.86 25.064C124.276 24.168 121.124 24.088 119.508 24.888C118.004 25.64 117.396 26.76 117.22 28.088C117.108 29.032 117.38 30.856 118.676 31.96C120.244 33.288 122.98 33.32 124.58 32.856C125.06 32.712 125.54 32.552 126.324 31.976V30.552H123.428H123.076C122.9 30.6 122.836 30.568 122.74 30.792L122.708 31.016L122.5 30.984V27.96L122.692 27.992C122.772 28.088 122.74 28.232 122.98 28.344C122.98 28.344 123.38 28.344 123.412 28.344H129.076V28.6H128.948C128.708 28.744 128.756 29.016 128.756 29.192V32.648C128.756 32.68 128.772 32.824 128.804 32.92L129.108 33.08V33.272C128.388 33.704 128.228 33.784 128.036 33.88L127.7 33.992C124.532 35.4 120.436 35.912 117.572 34.04C115.412 32.616 114.756 30.552 114.772 28.728C114.788 26.872 115.332 24.968 117.652 23.496C120.404 21.768 124.468 22.04 127.316 23.304L127.556 23.4C127.636 23.432 127.908 23.56 127.956 23.56ZM134.375 24.904C135.239 24.504 135.751 24.376 136.759 24.264C138.183 24.104 141.527 24.44 143.111 26.328C144.375 27.864 144.599 29.912 144.135 31.4C143.543 33.32 142.375 34.344 140.343 34.936C138.391 35.496 135.351 35.672 133.191 33.8C131.735 32.536 131.175 30.424 131.351 29.08C131.591 27.352 132.503 25.816 134.375 24.904ZM136.375 26.072C134.631 26.488 133.735 27.352 133.415 29C133.223 29.992 133.479 31.512 134.551 32.472C135.911 33.656 138.263 33.736 139.703 33.272C141.015 32.888 141.975 32.024 142.279 30.76C142.503 29.864 142.311 28.12 141.383 27.192C140.023 25.832 137.607 25.768 136.375 26.072Z" fill="white"/>
</svg>
