<svg width="49" height="49" viewBox="0 0 49 49" fill="none" xmlns="http://www.w3.org/2000/svg">
<rect width="49" height="49" rx="4" fill="white"/>
<path d="M26.1136 14.1677C26.9042 14.1647 27.6947 14.1726 28.4851 14.1915L28.6952 14.1991C28.9379 14.2078 29.1773 14.2186 29.4666 14.2316C30.6192 14.2858 31.4057 14.4678 32.0958 14.7354C32.8108 15.0105 33.4131 15.3832 34.0155 15.9855C34.5662 16.5268 34.9925 17.1815 35.2646 17.9041C35.5321 18.5942 35.7141 19.3818 35.7683 20.5345C35.7813 20.8226 35.7921 21.0631 35.8008 21.3058L35.8073 21.516C35.8266 22.3059 35.8349 23.0961 35.8322 23.8863L35.8333 24.6945V26.1136C35.836 26.9042 35.8277 27.6947 35.8084 28.485L35.8019 28.6952C35.7932 28.9379 35.7824 29.1773 35.7694 29.4665C35.7152 30.6192 35.5311 31.4057 35.2646 32.0958C34.9933 32.8192 34.567 33.4744 34.0155 34.0155C33.4738 34.5661 32.8187 34.9924 32.0958 35.2645C31.4057 35.5321 30.6192 35.7141 29.4666 35.7683C29.1773 35.7813 28.9379 35.7921 28.6952 35.8008L28.4851 35.8073C27.6947 35.8266 26.9042 35.8349 26.1136 35.8322L25.3055 35.8333H23.8874C23.0968 35.836 22.3063 35.8277 21.516 35.8084L21.3058 35.8019C21.0486 35.7926 20.7915 35.7817 20.5345 35.7694C19.3818 35.7152 18.5953 35.531 17.9041 35.2645C17.1812 34.993 16.5264 34.5667 15.9856 34.0155C15.4342 33.4741 15.0076 32.819 14.7354 32.0958C14.4678 31.4057 14.2858 30.6192 14.2316 29.4665C14.2196 29.2095 14.2087 28.9524 14.1991 28.6952L14.1937 28.485C14.1738 27.6947 14.1647 26.9042 14.1666 26.1136V23.8863C14.1636 23.0961 14.1716 22.3059 14.1905 21.516L14.1981 21.3058C14.2067 21.0631 14.2176 20.8226 14.2306 20.5345C14.2847 19.3807 14.4667 18.5953 14.7343 17.9041C15.0066 17.1811 15.4341 16.5266 15.9866 15.9866C16.5271 15.4349 17.1815 15.0079 17.9041 14.7354C18.5953 14.4678 19.3807 14.2858 20.5345 14.2316L21.3058 14.1991L21.516 14.1937C22.3059 14.1738 23.0961 14.1647 23.8863 14.1666L26.1136 14.1677ZM25 19.5844C24.2823 19.5742 23.5697 19.7068 22.9037 19.9745C22.2377 20.2421 21.6315 20.6394 21.1204 21.1434C20.6093 21.6473 20.2034 22.2478 19.9264 22.91C19.6494 23.5721 19.5067 24.2827 19.5067 25.0005C19.5067 25.7183 19.6494 26.4289 19.9264 27.0911C20.2034 27.7532 20.6093 28.3537 21.1204 28.8577C21.6315 29.3616 22.2377 29.7589 22.9037 30.0266C23.5697 30.2942 24.2823 30.4268 25 30.4166C26.4366 30.4166 27.8143 29.8459 28.8301 28.8301C29.846 27.8143 30.4166 26.4366 30.4166 25C30.4166 23.5634 29.846 22.1856 28.8301 21.1698C27.8143 20.154 26.4366 19.5844 25 19.5844ZM25 21.751C25.4317 21.7431 25.8607 21.8212 26.2618 21.9809C26.663 22.1406 27.0283 22.3787 27.3365 22.6811C27.6446 22.9836 27.8894 23.3444 28.0565 23.7426C28.2237 24.1407 28.3098 24.5682 28.3098 25C28.3099 25.4317 28.2239 25.8592 28.057 26.2574C27.89 26.6556 27.6453 27.0165 27.3373 27.3191C27.0292 27.6217 26.664 27.8598 26.2628 28.0197C25.8617 28.1795 25.4328 28.2578 25.0011 28.25C24.1391 28.25 23.3125 27.9076 22.703 27.2981C22.0935 26.6886 21.7511 25.8619 21.7511 25C21.7511 24.138 22.0935 23.3114 22.703 22.7019C23.3125 22.0924 24.1391 21.75 25.0011 21.75L25 21.751ZM30.6875 17.9594C30.338 17.9734 30.0075 18.122 29.7651 18.3743C29.5228 18.6265 29.3875 18.9627 29.3875 19.3125C29.3875 19.6622 29.5228 19.9984 29.7651 20.2507C30.0075 20.5029 30.338 20.6516 30.6875 20.6655C31.0466 20.6655 31.3911 20.5229 31.645 20.2689C31.899 20.015 32.0416 19.6705 32.0416 19.3114C32.0416 18.9522 31.899 18.6078 31.645 18.3538C31.3911 18.0999 31.0466 17.9572 30.6875 17.9572V17.9594Z" fill="#333333"/>
</svg>
